<?xml version="1.0" encoding="UTF-8" standalone="no"?>
<svg
   viewBox="0 0 24 24"
   fill="currentColor"
   version="1.1"
   id="svg1"
   xmlns:xlink="http://www.w3.org/1999/xlink"
   xmlns="http://www.w3.org/2000/svg"
   xmlns:svg="http://www.w3.org/2000/svg">
  <defs
     id="defs1">
    <linearGradient
       id="linearGradient1">
      <stop
         style="stop-color:#003c5b;stop-opacity:1;"
         offset="0"
         id="stop1" />
      <stop
         style="stop-color:#001d2b;stop-opacity:1;"
         offset="1"
         id="stop2" />
    </linearGradient>
    <linearGradient
       xlink:href="#linearGradient1"
       id="linearGradient2"
       x1="2.5"
       y1="12.000055"
       x2="21.5"
       y2="12.000055"
       gradientUnits="userSpaceOnUse" />
    <filter
       style="color-interpolation-filters:sRGB;"
       id="filter11"
       x="-0.12631579"
       y="-0.11226474"
       width="1.3052632"
       height="1.2713064">
      <feFlood
         result="flood"
         in="SourceGraphic"
         flood-opacity="0.498039"
         flood-color="rgb(0,0,0)"
         id="feFlood10" />
      <feGaussianBlur
         result="blur"
         in="SourceGraphic"
         stdDeviation="1.000000"
         id="feGaussianBlur10" />
      <feOffset
         result="offset"
         in="blur"
         dx="1.000000"
         dy="1.000000"
         id="feOffset10" />
      <feComposite
         result="comp1"
         operator="in"
         in="flood"
         in2="offset"
         id="feComposite10" />
      <feComposite
         result="comp2"
         operator="over"
         in="SourceGraphic"
         in2="comp1"
         id="feComposite11" />
    </filter>
  </defs>
  <g
     id="g7"
     style="filter:url(#filter11)">
    <path
       d="M10.9979 1.58018C11.6178 1.22132 12.3822 1.22132 13.0021 1.58018L20.5021 5.92229C21.1197 6.27987 21.5 6.93946 21.5 7.65314V16.3469C21.5 17.0606 21.1197 17.7202 20.5021 18.0778L13.0021 22.4199C12.3822 22.7788 11.6178 22.7788 10.9979 22.4199L3.49793 18.0778C2.88029 17.7202 2.5 17.0606 2.5 16.3469V7.65314C2.5 6.93947 2.88029 6.27987 3.49793 5.92229L10.9979 1.58018ZM4.5 7.65314V7.65792L11.0021 11.4223C11.6197 11.7799 12 12.4395 12 13.1531V20.689L19.5 16.3469V7.65314L12 3.31104L4.5 7.65314ZM6.13208 12.3C6.13206 11.7477 5.74432 11.0761 5.26604 10.7999C4.78776 10.5238 4.40004 10.7476 4.40006 11.2999C4.40008 11.8522 4.78782 12.5238 5.2661 12.7999C5.74439 13.0761 6.1321 12.8523 6.13208 12.3ZM8.72899 18.7982C9.20728 19.0743 9.59499 18.8505 9.59497 18.2982C9.59495 17.7459 9.20721 17.0743 8.72893 16.7982C8.25065 16.522 7.86293 16.7459 7.86295 17.2982C7.86297 17.8504 8.25071 18.522 8.72899 18.7982ZM5.2661 16.799C5.74439 17.0751 6.1321 16.8513 6.13208 16.299C6.13206 15.7467 5.74432 15.0751 5.26604 14.799C4.78776 14.5228 4.40004 14.7467 4.40006 15.2989C4.40008 15.8512 4.78782 16.5228 5.2661 16.799ZM8.72851 14.7995C9.20679 15.0756 9.5945 14.8518 9.59448 14.2995C9.59446 13.7472 9.20673 13.0756 8.72844 12.7995C8.25016 12.5233 7.86245 12.7471 7.86246 13.2994C7.86248 13.8517 8.25022 14.5233 8.72851 14.7995ZM14.8979 8.00001C15.3762 7.72388 15.3762 7.27619 14.8979 7.00006C14.4196 6.72394 13.6441 6.72394 13.1658 7.00006C12.6875 7.27619 12.6875 7.72388 13.1658 8.00001C13.6441 8.27614 14.4196 8.27614 14.8979 8.00001ZM10.0981 7.00006C10.5764 7.27619 10.5764 7.72388 10.0981 8.00001C9.61982 8.27614 8.84434 8.27614 8.36604 8.00001C7.88774 7.72388 7.88774 7.27619 8.36604 7.00006C8.84434 6.72394 9.61982 6.72394 10.0981 7.00006ZM15.9954 15.3495C16.5932 15.0043 17.0779 14.1649 17.0779 13.4745C17.0779 12.7842 16.5933 12.5044 15.9955 12.8496C15.3977 13.1948 14.9131 14.0342 14.913 14.7246C14.913 15.4149 15.3976 15.6947 15.9954 15.3495Z"
       id="path1"
       style="fill:url(#linearGradient2)" />
    <path
       style="fill:#ffffff;stroke-width:0.118081"
       d="M 12.001595,16.610871 11.98524,12.605166 11.819374,12.267397 C 11.724393,12.073977 11.535156,11.825241 11.37657,11.68537 11.224253,11.551028 9.6516605,10.604322 7.8819188,9.5815776 6.1121771,8.558834 4.644676,7.7039462 4.6208053,7.6818271 4.5969346,7.659708 6.2043146,6.7008736 8.192761,5.551084 c 1.988446,-1.1497897 3.659127,-2.1166462 3.712625,-2.1485703 0.07646,-0.045628 0.893678,0.4019972 3.820401,2.0925996 l 3.723132,2.1506432 0.0025,4.3462745 0.0025,4.346276 -0.457565,0.264358 c -0.251661,0.145398 -1.886013,1.093146 -3.631894,2.106107 -1.745881,1.012962 -3.213061,1.856611 -3.260398,1.874776 -0.07478,0.02869 -0.08821,-0.492437 -0.102423,-3.972677 z m 3.900921,-1.18481 c 0.537384,-0.253318 1.116623,-1.106601 1.176876,-1.733668 0.0618,-0.643149 -0.144926,-0.998666 -0.580701,-0.998666 -0.339779,0 -0.588113,0.133716 -0.940695,0.50652 -0.419982,0.444068 -0.611806,0.880417 -0.640185,1.456247 -0.02247,0.455836 -0.0219,0.457865 0.18444,0.664207 0.238521,0.238521 0.456811,0.26726 0.800265,0.10536 z M 9.84653,8.135751 C 10.360582,7.9817373 10.615772,7.5415692 10.383371,7.2097717 10.013357,6.6815028 8.5760861,6.6454536 8.1484123,7.153715 7.8498589,7.5085255 8.0328552,7.9290323 8.5689896,8.1201586 8.8533315,8.2215237 9.5325761,8.2298138 9.84653,8.135751 Z m 4.78239,0.0083 c 0.122659,-0.034063 0.315279,-0.1429398 0.428044,-0.2419493 0.269885,-0.2369616 0.286264,-0.5401888 0.04183,-0.7743716 -0.639504,-0.6126843 -2.316506,-0.3445209 -2.316506,0.3704244 0,0.3921741 0.538822,0.7071789 1.210332,0.707581 0.227306,1.362e-4 0.513641,-0.027622 0.6363,-0.061685 z"
       id="path3" />
    <path
       style="fill:#ffffff;stroke-width:0.118081"
       d="m 8.6392761,14.684383 c -0.504664,-0.382865 -0.8492363,-1.139447 -0.721611,-1.58445 0.075861,-0.264512 0.3139186,-0.429561 0.5460388,-0.378579 0.2718974,0.05972 0.7463429,0.517901 0.9230333,0.891394 0.436363,0.922396 -0.041367,1.607317 -0.7474611,1.071635 z"
       id="path4" />
    <path
       style="fill:#ffffff;stroke-width:0.118081"
       d="M 5.1826687,12.698977 C 4.748733,12.384636 4.460928,11.846923 4.4588612,11.346672 c -0.00151,-0.365304 0.06932,-0.527121 0.2629511,-0.600739 0.3461834,-0.131619 0.8873051,0.249241 1.1916937,0.838755 0.2052038,0.397421 0.2322158,0.965874 0.055203,1.161722 -0.1671386,0.184923 -0.4923759,0.165297 -0.7860405,-0.04743 z"
       id="path5" />
    <path
       style="fill:#ffffff;stroke-width:0.118081"
       d="M 5.1944814,16.693727 C 5.0225043,16.575922 4.832476,16.368028 4.7022504,16.15522 4.5254643,15.866323 4.486351,15.74158 4.4674014,15.406218 c -0.020825,-0.368552 -0.010012,-0.4151 0.1286313,-0.553743 0.195673,-0.195673 0.3661836,-0.191091 0.6970424,0.01873 0.5625829,0.356779 0.9546142,1.245942 0.7582987,1.719889 -0.1450235,0.350118 -0.4434235,0.385857 -0.8568924,0.102629 z"
       id="path6" />
    <path
       style="fill:#ffffff;stroke-width:0.118081"
       d="M 8.7599142,18.774554 C 8.2030368,18.480292 7.7674083,17.559075 7.9391103,17.038813 c 0.119115,-0.360922 0.3919927,-0.424308 0.7992312,-0.18565 0.7077106,0.414746 1.080044,1.616203 0.6041606,1.949524 -0.1683432,0.117913 -0.3200702,0.110586 -0.5825879,-0.02813 z"
       id="path7" />
  </g>
</svg>
