<?xml version="1.0" encoding="UTF-8" standalone="no"?>
<svg
   viewBox="0 0 150.64214 74.374558"
   fill="currentColor"
   version="1.1"
   id="svg1"
   sodipodi:docname="header-inkscape.svg"
   inkscape:version="1.3.2 (091e20e, 2023-11-25, custom)"
   inkscape:export-filename="header.png"
   inkscape:export-xdpi="96"
   inkscape:export-ydpi="96"
   width="150.64214"
   height="74.374557"
   xmlns:inkscape="http://www.inkscape.org/namespaces/inkscape"
   xmlns:sodipodi="http://sodipodi.sourceforge.net/DTD/sodipodi-0.dtd"
   xmlns:xlink="http://www.w3.org/1999/xlink"
   xmlns="http://www.w3.org/2000/svg"
   xmlns:svg="http://www.w3.org/2000/svg">
  <defs
     id="defs1">
    <linearGradient
       id="linearGradient17"
       inkscape:collect="always">
      <stop
         style="stop-color:#003c5b;stop-opacity:1;"
         offset="0"
         id="stop18" />
      <stop
         style="stop-color:#001d2b;stop-opacity:1;"
         offset="0.20554274"
         id="stop16" />
      <stop
         style="stop-color:#001d2b;stop-opacity:1;"
         offset="0.53579676"
         id="stop19" />
      <stop
         style="stop-color:#003c5b;stop-opacity:1;"
         offset="1"
         id="stop17" />
    </linearGradient>
    <linearGradient
       id="linearGradient11"
       inkscape:collect="always">
      <stop
         style="stop-color:#001d2b;stop-opacity:1;"
         offset="0"
         id="stop11" />
      <stop
         style="stop-color:#003c5b;stop-opacity:1;"
         offset="1"
         id="stop12" />
    </linearGradient>
    <linearGradient
       id="linearGradient1"
       inkscape:collect="always">
      <stop
         style="stop-color:#003c5b;stop-opacity:1;"
         offset="0"
         id="stop1" />
      <stop
         style="stop-color:#001d2b;stop-opacity:1;"
         offset="1"
         id="stop2" />
    </linearGradient>
    <linearGradient
       inkscape:collect="always"
       xlink:href="#linearGradient1"
       id="linearGradient2"
       x1="2.5"
       y1="12.000055"
       x2="21.5"
       y2="12.000055"
       gradientUnits="userSpaceOnUse" />
    <filter
       style="color-interpolation-filters:sRGB"
       inkscape:label="Drop Shadow"
       id="filter11"
       x="-0.12631579"
       y="-0.18145304"
       width="1.3052632"
       height="1.4385115">
      <feFlood
         result="flood"
         in="SourceGraphic"
         flood-opacity="0.498039"
         flood-color="rgb(0,0,0)"
         id="feFlood10" />
      <feGaussianBlur
         result="blur"
         in="SourceGraphic"
         stdDeviation="1.000000"
         id="feGaussianBlur10" />
      <feOffset
         result="offset"
         in="blur"
         dx="1.000000"
         dy="1.000000"
         id="feOffset10" />
      <feComposite
         result="comp1"
         operator="in"
         in="flood"
         in2="offset"
         id="feComposite10" />
      <feComposite
         result="comp2"
         operator="over"
         in="SourceGraphic"
         in2="comp1"
         id="feComposite11" />
    </filter>
    <linearGradient
       inkscape:collect="always"
       xlink:href="#linearGradient11"
       id="linearGradient12"
       x1="27.914265"
       y1="12.253162"
       x2="145.28851"
       y2="12.253162"
       gradientUnits="userSpaceOnUse"
       gradientTransform="translate(-13.146673,0.62876504)" />
    <filter
       style="color-interpolation-filters:sRGB"
       inkscape:label="Drop Shadow"
       id="filter11-4"
       x="-0.05803892"
       y="-0.18145303"
       width="1.1402607"
       height="1.4385115">
      <feFlood
         result="flood"
         in="SourceGraphic"
         flood-opacity="0.498039"
         flood-color="rgb(0,0,0)"
         id="feFlood10-0" />
      <feGaussianBlur
         result="blur"
         in="SourceGraphic"
         stdDeviation="1.000000"
         id="feGaussianBlur10-3" />
      <feOffset
         result="offset"
         in="blur"
         dx="1.000000"
         dy="1.000000"
         id="feOffset10-3" />
      <feComposite
         result="comp1"
         operator="in"
         in="flood"
         in2="offset"
         id="feComposite10-4" />
      <feComposite
         result="comp2"
         operator="over"
         in="SourceGraphic"
         in2="comp1"
         id="feComposite11-6" />
    </filter>
    <linearGradient
       inkscape:collect="always"
       xlink:href="#linearGradient17"
       id="linearGradient15-2"
       x1="21.253963"
       y1="13.641686"
       x2="111.52877"
       y2="13.641686"
       gradientUnits="userSpaceOnUse" />
    <filter
       style="color-interpolation-filters:sRGB"
       inkscape:label="Drop Shadow"
       id="filter11-4-7"
       x="-0.030314391"
       y="-0.25237644"
       width="1.0732598"
       height="1.6099097">
      <feFlood
         result="flood"
         in="SourceGraphic"
         flood-opacity="0.498039"
         flood-color="rgb(0,0,0)"
         id="feFlood10-0-7" />
      <feGaussianBlur
         result="blur"
         in="SourceGraphic"
         stdDeviation="1.000000"
         id="feGaussianBlur10-3-5" />
      <feOffset
         result="offset"
         in="blur"
         dx="1.000000"
         dy="1.000000"
         id="feOffset10-3-1" />
      <feComposite
         result="comp1"
         operator="in"
         in="flood"
         in2="offset"
         id="feComposite10-4-4" />
      <feComposite
         result="comp2"
         operator="over"
         in="SourceGraphic"
         in2="comp1"
         id="feComposite11-6-6" />
    </filter>
    <filter
       style="color-interpolation-filters:sRGB"
       inkscape:label="Drop Shadow"
       id="filter11-4-7-2"
       x="-0.030314391"
       y="-0.25237644"
       width="1.0732598"
       height="1.6099097">
      <feFlood
         result="flood"
         in="SourceGraphic"
         flood-opacity="0.498039"
         flood-color="rgb(0,0,0)"
         id="feFlood10-0-7-9" />
      <feGaussianBlur
         result="blur"
         in="SourceGraphic"
         stdDeviation="1.000000"
         id="feGaussianBlur10-3-5-9" />
      <feOffset
         result="offset"
         in="blur"
         dx="1.000000"
         dy="1.000000"
         id="feOffset10-3-1-1" />
      <feComposite
         result="comp1"
         operator="in"
         in="flood"
         in2="offset"
         id="feComposite10-4-4-2" />
      <feComposite
         result="comp2"
         operator="over"
         in="SourceGraphic"
         in2="comp1"
         id="feComposite11-6-6-6" />
    </filter>
    <filter
       style="color-interpolation-filters:sRGB"
       inkscape:label="Drop Shadow"
       id="filter11-4-7-3"
       x="-0.030314391"
       y="-0.25237644"
       width="1.0732598"
       height="1.6099097">
      <feFlood
         result="flood"
         in="SourceGraphic"
         flood-opacity="0.498039"
         flood-color="rgb(0,0,0)"
         id="feFlood10-0-7-99" />
      <feGaussianBlur
         result="blur"
         in="SourceGraphic"
         stdDeviation="1.000000"
         id="feGaussianBlur10-3-5-4" />
      <feOffset
         result="offset"
         in="blur"
         dx="1.000000"
         dy="1.000000"
         id="feOffset10-3-1-18" />
      <feComposite
         result="comp1"
         operator="in"
         in="flood"
         in2="offset"
         id="feComposite10-4-4-0" />
      <feComposite
         result="comp2"
         operator="over"
         in="SourceGraphic"
         in2="comp1"
         id="feComposite11-6-6-0" />
    </filter>
    <filter
       style="color-interpolation-filters:sRGB"
       inkscape:label="Drop Shadow"
       id="filter11-4-7-24"
       x="-0.030314391"
       y="-0.25237644"
       width="1.0732598"
       height="1.6099097">
      <feFlood
         result="flood"
         in="SourceGraphic"
         flood-opacity="0.498039"
         flood-color="rgb(0,0,0)"
         id="feFlood10-0-7-8" />
      <feGaussianBlur
         result="blur"
         in="SourceGraphic"
         stdDeviation="1.000000"
         id="feGaussianBlur10-3-5-7" />
      <feOffset
         result="offset"
         in="blur"
         dx="1.000000"
         dy="1.000000"
         id="feOffset10-3-1-9" />
      <feComposite
         result="comp1"
         operator="in"
         in="flood"
         in2="offset"
         id="feComposite10-4-4-4" />
      <feComposite
         result="comp2"
         operator="over"
         in="SourceGraphic"
         in2="comp1"
         id="feComposite11-6-6-4" />
    </filter>
  </defs>
  <sodipodi:namedview
     id="namedview1"
     pagecolor="#505050"
     bordercolor="#ffffff"
     borderopacity="1"
     inkscape:showpageshadow="0"
     inkscape:pageopacity="0"
     inkscape:pagecheckerboard="1"
     inkscape:deskcolor="#505050"
     inkscape:zoom="1.0585938"
     inkscape:cx="-200.73801"
     inkscape:cy="98.715867"
     inkscape:window-width="1920"
     inkscape:window-height="1009"
     inkscape:window-x="1912"
     inkscape:window-y="-7"
     inkscape:window-maximized="1"
     inkscape:current-layer="svg1" />
  <g
     id="g7"
     style="filter:url(#filter11)"
     transform="matrix(1.7728794,0,0,1.7728794,1.9227118,4.5528877)">
    <path
       d="m 10.9979,1.58018 c 0.6199,-0.35886 1.3843,-0.35886 2.0042,0 l 7.5,4.34211 C 21.1197,6.27987 21.5,6.93946 21.5,7.65314 v 8.69376 c 0,0.7137 -0.3803,1.3733 -0.9979,1.7309 l -7.5,4.3421 c -0.6199,0.3589 -1.3843,0.3589 -2.0042,0 L 3.49793,18.0778 C 2.88029,17.7202 2.5,17.0606 2.5,16.3469 V 7.65314 C 2.5,6.93947 2.88029,6.27987 3.49793,5.92229 Z M 4.5,7.65314 v 0.00478 l 6.5021,3.76438 C 11.6197,11.7799 12,12.4395 12,13.1531 v 7.5359 l 7.5,-4.3421 V 7.65314 L 12,3.31104 Z M 6.13208,12.3 c -2e-5,-0.5523 -0.38776,-1.2239 -0.86604,-1.5001 -0.47828,-0.2761 -0.866,-0.0523 -0.86598,0.5 2e-5,0.5523 0.38776,1.2239 0.86604,1.5 0.47829,0.2762 0.866,0.0524 0.86598,-0.4999 z m 2.59691,6.4982 c 0.47829,0.2761 0.866,0.0523 0.86598,-0.5 -2e-5,-0.5523 -0.38776,-1.2239 -0.86604,-1.5 -0.47828,-0.2762 -0.866,-0.0523 -0.86598,0.5 2e-5,0.5522 0.38776,1.2238 0.86604,1.5 z M 5.2661,16.799 c 0.47829,0.2761 0.866,0.0523 0.86598,-0.5 -2e-5,-0.5523 -0.38776,-1.2239 -0.86604,-1.5 -0.47828,-0.2762 -0.866,-0.0523 -0.86598,0.4999 2e-5,0.5523 0.38776,1.2239 0.86604,1.5001 z m 3.46241,-1.9995 c 0.47828,0.2761 0.86599,0.0523 0.86597,-0.5 -2e-5,-0.5523 -0.38775,-1.2239 -0.86604,-1.5 -0.47828,-0.2762 -0.86599,-0.0524 -0.86598,0.4999 2e-5,0.5523 0.38776,1.2239 0.86605,1.5001 z M 14.8979,8.00001 c 0.4783,-0.27613 0.4783,-0.72382 0,-0.99995 -0.4783,-0.27612 -1.2538,-0.27612 -1.7321,0 -0.4783,0.27613 -0.4783,0.72382 0,0.99995 0.4783,0.27613 1.2538,0.27613 1.7321,0 z M 10.0981,7.00006 c 0.4783,0.27613 0.4783,0.72382 0,0.99995 -0.47828,0.27613 -1.25376,0.27613 -1.73206,0 -0.4783,-0.27613 -0.4783,-0.72382 0,-0.99995 0.4783,-0.27612 1.25378,-0.27612 1.73206,0 z m 5.8973,8.34944 c 0.5978,-0.3452 1.0825,-1.1846 1.0825,-1.875 0,-0.6903 -0.4846,-0.9701 -1.0824,-0.6249 -0.5978,0.3452 -1.0824,1.1846 -1.0825,1.875 0,0.6903 0.4846,0.9701 1.0824,0.6249 z"
       id="path1"
       style="fill:url(#linearGradient2)" />
    <path
       style="fill:#ffffff;stroke-width:0.118081"
       d="M 12.001595,16.610871 11.98524,12.605166 11.819374,12.267397 C 11.724393,12.073977 11.535156,11.825241 11.37657,11.68537 11.224253,11.551028 9.6516605,10.604322 7.8819188,9.5815776 6.1121771,8.558834 4.644676,7.7039462 4.6208053,7.6818271 4.5969346,7.659708 6.2043146,6.7008736 8.192761,5.551084 c 1.988446,-1.1497897 3.659127,-2.1166462 3.712625,-2.1485703 0.07646,-0.045628 0.893678,0.4019972 3.820401,2.0925996 l 3.723132,2.1506432 0.0025,4.3462745 0.0025,4.346276 -0.457565,0.264358 c -0.251661,0.145398 -1.886013,1.093146 -3.631894,2.106107 -1.745881,1.012962 -3.213061,1.856611 -3.260398,1.874776 -0.07478,0.02869 -0.08821,-0.492437 -0.102423,-3.972677 z m 3.900921,-1.18481 c 0.537384,-0.253318 1.116623,-1.106601 1.176876,-1.733668 0.0618,-0.643149 -0.144926,-0.998666 -0.580701,-0.998666 -0.339779,0 -0.588113,0.133716 -0.940695,0.50652 -0.419982,0.444068 -0.611806,0.880417 -0.640185,1.456247 -0.02247,0.455836 -0.0219,0.457865 0.18444,0.664207 0.238521,0.238521 0.456811,0.26726 0.800265,0.10536 z M 9.84653,8.135751 C 10.360582,7.9817373 10.615772,7.5415692 10.383371,7.2097717 10.013357,6.6815028 8.5760861,6.6454536 8.1484123,7.153715 7.8498589,7.5085255 8.0328552,7.9290323 8.5689896,8.1201586 8.8533315,8.2215237 9.5325761,8.2298138 9.84653,8.135751 Z m 4.78239,0.0083 c 0.122659,-0.034063 0.315279,-0.1429398 0.428044,-0.2419493 0.269885,-0.2369616 0.286264,-0.5401888 0.04183,-0.7743716 -0.639504,-0.6126843 -2.316506,-0.3445209 -2.316506,0.3704244 0,0.3921741 0.538822,0.7071789 1.210332,0.707581 0.227306,1.362e-4 0.513641,-0.027622 0.6363,-0.061685 z"
       id="path3" />
    <path
       style="fill:#ffffff;stroke-width:0.118081"
       d="m 8.6392761,14.684383 c -0.504664,-0.382865 -0.8492363,-1.139447 -0.721611,-1.58445 0.075861,-0.264512 0.3139186,-0.429561 0.5460388,-0.378579 0.2718974,0.05972 0.7463429,0.517901 0.9230333,0.891394 0.436363,0.922396 -0.041367,1.607317 -0.7474611,1.071635 z"
       id="path4" />
    <path
       style="fill:#ffffff;stroke-width:0.118081"
       d="M 5.1826687,12.698977 C 4.748733,12.384636 4.460928,11.846923 4.4588612,11.346672 c -0.00151,-0.365304 0.06932,-0.527121 0.2629511,-0.600739 0.3461834,-0.131619 0.8873051,0.249241 1.1916937,0.838755 0.2052038,0.397421 0.2322158,0.965874 0.055203,1.161722 -0.1671386,0.184923 -0.4923759,0.165297 -0.7860405,-0.04743 z"
       id="path5" />
    <path
       style="fill:#ffffff;stroke-width:0.118081"
       d="M 5.1944814,16.693727 C 5.0225043,16.575922 4.832476,16.368028 4.7022504,16.15522 4.5254643,15.866323 4.486351,15.74158 4.4674014,15.406218 c -0.020825,-0.368552 -0.010012,-0.4151 0.1286313,-0.553743 0.195673,-0.195673 0.3661836,-0.191091 0.6970424,0.01873 0.5625829,0.356779 0.9546142,1.245942 0.7582987,1.719889 -0.1450235,0.350118 -0.4434235,0.385857 -0.8568924,0.102629 z"
       id="path6" />
    <path
       style="fill:#ffffff;stroke-width:0.118081"
       d="M 8.7599142,18.774554 C 8.2030368,18.480292 7.7674083,17.559075 7.9391103,17.038813 c 0.119115,-0.360922 0.3919927,-0.424308 0.7992312,-0.18565 0.7077106,0.414746 1.080044,1.616203 0.6041606,1.949524 -0.1683432,0.117913 -0.3200702,0.110586 -0.5825879,-0.02813 z"
       id="path7" />
  </g>
  <text
     xml:space="preserve"
     style="font-size:16px;fill:url(#linearGradient12);stroke-width:2;filter:url(#filter11)"
     x="25.007248"
     y="15.551635"
     id="text11"
     transform="matrix(1.7728794,0,0,1.7728794,8.924664,9.3246482)"><tspan
       sodipodi:role="line"
       id="tspan11"
       x="25.007248"
       y="15.551635"
       style="font-style:normal;font-variant:normal;font-weight:normal;font-stretch:normal;font-size:16px;font-family:'Comic Sans MS';-inkscape-font-specification:'Comic Sans MS';fill:url(#linearGradient12)">BudDi</tspan></text>
  <text
     xml:space="preserve"
     style="font-size:9.02487px;fill:url(#linearGradient15-2);stroke:none;stroke-width:2;stroke-opacity:1;filter:url(#filter11-4-7)"
     x="25.007248"
     y="15.551635"
     id="text11-8-3"
     transform="matrix(1.7728794,0,0,1.7728794,-41.572112,36.369345)"><tspan
       sodipodi:role="line"
       id="tspan11-5-9"
       x="25.007248"
       y="15.551635"
       style="font-style:normal;font-variant:normal;font-weight:normal;font-stretch:normal;font-size:9.02487px;font-family:'Comic Sans MS';-inkscape-font-specification:'Comic Sans MS';fill:url(#linearGradient15-2);fill-opacity:1;stroke:none;stroke-opacity:1">Budget Distributor</tspan></text>
</svg>
